<svg width="24" height="25" viewBox="0 0 24 25" fill="none" xmlns="http://www.w3.org/2000/svg">
<g id="Chart">
<path id="Fill 1" fill-rule="evenodd" clip-rule="evenodd" d="M7.12109 18.0625C6.70709 18.0625 6.37109 17.7265 6.37109 17.3125V10.4525C6.37109 10.0385 6.70709 9.7025 7.12109 9.7025C7.53509 9.7025 7.87109 10.0385 7.87109 10.4525V17.3125C7.87109 17.7265 7.53509 18.0625 7.12109 18.0625" fill="#887549"/>
<path id="Fill 3" fill-rule="evenodd" clip-rule="evenodd" d="M11.7881 18.0615C11.3741 18.0615 11.0381 17.7255 11.0381 17.3115V7.1685C11.0381 6.7545 11.3741 6.4185 11.7881 6.4185C12.2021 6.4185 12.5381 6.7545 12.5381 7.1685V17.3115C12.5381 17.7255 12.2021 18.0615 11.7881 18.0615" fill="#887549"/>
<path id="Fill 5" fill-rule="evenodd" clip-rule="evenodd" d="M16.3784 18.0615C15.9644 18.0615 15.6284 17.7255 15.6284 17.3115V14.0775C15.6284 13.6635 15.9644 13.3275 16.3784 13.3275C16.7924 13.3275 17.1284 13.6635 17.1284 14.0775V17.3115C17.1284 17.7255 16.7924 18.0615 16.3784 18.0615" fill="#887549"/>
<path id="Fill 7" fill-rule="evenodd" clip-rule="evenodd" d="M7.064 3C4.292 3 2.5 4.897 2.5 7.835V16.665C2.5 19.603 4.292 21.5 7.064 21.5H16.436C19.209 21.5 21 19.603 21 16.665V7.835C21 4.897 19.209 3 16.436 3H7.064ZM16.436 23H7.064C3.437 23 1 20.454 1 16.665V7.835C1 4.046 3.437 1.5 7.064 1.5H16.436C20.063 1.5 22.5 4.046 22.5 7.835V16.665C22.5 20.454 20.063 23 16.436 23V23Z" fill="#887549"/>
</g>
</svg>
