<svg width="29" height="28" viewBox="0 0 29 28" fill="none" xmlns="http://www.w3.org/2000/svg">
<path fill-rule="evenodd" clip-rule="evenodd" d="M14.5018 4.08333C9.06364 4.08333 4.63956 8.53183 4.63956 14C4.63956 19.4682 9.06364 23.9167 14.5018 23.9167C19.9399 23.9167 24.364 19.4682 24.364 14C24.364 8.53183 19.9399 4.08333 14.5018 4.08333M14.5018 25.6667C8.10411 25.6667 2.89917 20.433 2.89917 14C2.89917 7.567 8.10411 2.33333 14.5018 2.33333C20.8995 2.33333 26.1044 7.567 26.1044 14C26.1044 20.433 20.8995 25.6667 14.5018 25.6667" fill="#887549"/>
<path fill-rule="evenodd" clip-rule="evenodd" d="M18.4829 18.3078C18.3309 18.3078 18.1778 18.2681 18.0374 18.1853L13.6632 15.5615C13.401 15.4028 13.2385 15.117 13.2385 14.809V9.15297C13.2385 8.66997 13.6284 8.27797 14.1087 8.27797C14.5902 8.27797 14.9789 8.66997 14.9789 9.15297V14.312L18.9296 16.6803C19.3415 16.9288 19.4773 17.4655 19.2313 17.8808C19.0677 18.155 18.7788 18.3078 18.4829 18.3078" fill="#887549"/>
</svg>
