<svg width="18" height="18" viewBox="0 0 18 18" fill="none" xmlns="http://www.w3.org/2000/svg">
<path d="M12.1664 10.1512L12.1664 14.4949" stroke="white" stroke-width="0.875" stroke-linecap="round" stroke-linejoin="round"/>
<path d="M5.48443 8.21375L5.48443 3.87007" stroke="white" stroke-width="0.875" stroke-linecap="round" stroke-linejoin="round"/>
<path fill-rule="evenodd" clip-rule="evenodd" d="M5.44708 11.2569C4.55387 11.2569 3.82959 11.9864 3.82959 12.886C3.82959 13.7856 4.55387 14.5151 5.44708 14.5151C6.3403 14.5151 7.06458 13.7856 7.06458 12.886C7.06458 11.9864 6.3403 11.2569 5.44708 11.2569Z" stroke="white" stroke-width="0.875" stroke-linecap="round" stroke-linejoin="round"/>
<path fill-rule="evenodd" clip-rule="evenodd" d="M12.1393 3.48477C11.2461 3.48477 10.5219 4.2137 10.5219 5.11334C10.5219 6.01355 11.2461 6.74304 12.1393 6.74304C13.0326 6.74304 13.7568 6.01355 13.7568 5.11334C13.7568 4.2137 13.0326 3.48477 12.1393 3.48477Z" stroke="white" stroke-width="0.875" stroke-linecap="round" stroke-linejoin="round"/>
</svg>
