<svg width="19" height="19" viewBox="0 0 19 19" fill="none" xmlns="http://www.w3.org/2000/svg">
<path fill-rule="evenodd" clip-rule="evenodd" d="M12.9063 2.17688H6.05684C3.67234 2.17688 2.17688 3.8663 2.17688 6.25713V12.706C2.17688 15.0969 3.666 16.7863 6.05684 16.7863H12.9024C15.2972 16.7863 16.7855 15.0969 16.7855 12.706V6.25713C16.7887 3.8663 15.2995 2.17688 12.9063 2.17688Z" stroke="#887549" stroke-width="1.5" stroke-linecap="round" stroke-linejoin="round"/>
<path fill-rule="evenodd" clip-rule="evenodd" d="M8.47337 6.9547C8.47337 7.7622 7.81945 8.41612 7.01195 8.41612C6.20525 8.41612 5.55054 7.7622 5.55054 6.9547C5.55054 6.1472 6.20525 5.49329 7.01195 5.49329C7.81866 5.49408 8.47258 6.14799 8.47337 6.9547Z" stroke="#887549" stroke-width="1.5" stroke-linecap="round" stroke-linejoin="round"/>
<path d="M16.7889 11.8361C16.0582 11.084 14.653 9.56482 13.125 9.56482C11.5963 9.56482 10.7152 12.9159 9.24508 12.9159C7.77496 12.9159 6.43942 11.4007 5.26142 12.3721C4.08342 13.3427 2.96875 15.3274 2.96875 15.3274" stroke="#887549" stroke-width="1.5" stroke-linecap="round" stroke-linejoin="round"/>
</svg>
