<svg width="34" height="35" viewBox="0 0 34 35" fill="none" xmlns="http://www.w3.org/2000/svg">
<path fill-rule="evenodd" clip-rule="evenodd" d="M16.4245 19.3388C15.4915 19.3388 14.5612 19.0257 13.783 18.3995L7.52808 13.2769C7.07761 12.9085 7.00788 12.2385 7.36909 11.7823C7.73309 11.3275 8.39136 11.2553 8.84043 11.6222L15.0898 16.7392C15.875 17.371 16.9809 17.371 17.7717 16.7335L23.9583 11.625C24.4074 11.2525 25.0656 11.3233 25.431 11.7795C25.795 12.2342 25.7267 12.9029 25.279 13.274L19.0812 18.391C18.2975 19.0229 17.3603 19.3388 16.4245 19.3388" fill="black"/>
<mask style="mask-type:alpha" maskUnits="userSpaceOnUse" x="1" y="3" width="31" height="28">
<path fill-rule="evenodd" clip-rule="evenodd" d="M1.39453 3.09698H31.3791V30.722H1.39453V3.09698Z" fill="white"/>
</mask>
<g>
<path fill-rule="evenodd" clip-rule="evenodd" d="M9.53772 28.597H23.233C23.2358 28.5942 23.247 28.597 23.2554 28.597C24.8466 28.597 26.258 28.019 27.3403 26.9211C28.5968 25.6503 29.2872 23.8242 29.2872 21.78V12.0503C29.2872 8.09358 26.7406 5.22199 23.233 5.22199H9.54051C6.033 5.22199 3.4864 8.09358 3.4864 12.0503V21.78C3.4864 23.8242 4.17813 25.6503 5.43331 26.9211C6.51554 28.019 7.92831 28.597 9.5182 28.597H9.53772ZM9.51398 30.722C7.36206 30.722 5.44025 29.9287 3.95636 28.427C2.30371 26.7525 1.39441 24.3923 1.39441 21.78V12.0503C1.39441 6.94607 4.89634 3.09698 9.54048 3.09698H23.233C27.8772 3.09698 31.3791 6.94607 31.3791 12.0503V21.78C31.3791 24.3923 30.4698 26.7525 28.8171 28.427C27.3346 29.9272 25.4114 30.722 23.2553 30.722H23.233H9.54048H9.51398Z" fill="black"/>
</g>
</svg>
