<svg width="34" height="35" viewBox="0 0 34 35" fill="none" xmlns="http://www.w3.org/2000/svg">
<mask style="mask-type:alpha" maskUnits="userSpaceOnUse" x="4" y="1" width="26" height="26">
<path fill-rule="evenodd" clip-rule="evenodd" d="M4.18408 1.68033H29.9805V26.2567H4.18408V1.68033Z" fill="white"/>
</mask>
<g>
<path fill-rule="evenodd" clip-rule="evenodd" d="M17.0802 3.80534C12.206 3.80534 8.80862 7.68417 8.80862 11.1649C8.80862 14.1102 8.00391 15.4716 7.29265 16.6729C6.72224 17.6377 6.27178 18.3998 6.27178 20.0559C6.50468 22.7278 8.241 24.1317 17.0802 24.1317C25.8706 24.1317 27.6613 22.6654 27.8928 19.9638C27.8886 18.3998 27.4382 17.6377 26.8678 16.6729C26.1565 15.4716 25.3518 14.1102 25.3518 11.1649C25.3518 7.68417 21.9545 3.80534 17.0802 3.80534M17.0803 26.2567C10.559 26.2567 4.66525 25.7892 4.1841 20.1466C4.17992 17.8119 4.88142 16.6247 5.50064 15.5792C6.12683 14.5196 6.71676 13.5208 6.71676 11.1649C6.71676 6.58483 10.8811 1.68033 17.0803 1.68033C23.2795 1.68033 27.4438 6.58483 27.4438 11.1649C27.4438 13.5208 28.0338 14.5196 28.66 15.5792C29.2792 16.6247 29.9807 17.8119 29.9807 20.0559C29.494 25.7892 23.6016 26.2567 17.0803 26.2567" fill="black"/>
</g>
<path fill-rule="evenodd" clip-rule="evenodd" d="M17.0124 32.1387H17.0096C15.4462 32.1373 13.9665 31.4374 12.8438 30.1667C12.4575 29.7318 12.4924 29.0589 12.9219 28.6679C13.3515 28.274 14.0125 28.3094 14.3988 28.7472C15.1212 29.5646 16.0487 30.0137 17.011 30.0137H17.0124C17.9789 30.0137 18.9105 29.5646 19.6343 28.7458C20.022 28.3109 20.6831 28.2754 21.1112 28.6679C21.5408 29.0603 21.5756 29.7332 21.1893 30.1681C20.0624 31.4389 18.5799 32.1387 17.0124 32.1387" fill="black"/>
</svg>
