<svg width="24" height="25" viewBox="0 0 24 25" fill="none" xmlns="http://www.w3.org/2000/svg">
<g>
<path id="Fill 1" fill-rule="evenodd" clip-rule="evenodd" d="M7.5729 4.0117C5.9149 4.0117 4.5399 5.3537 4.5009 7.0087V17.8397C4.4719 19.4867 5.7789 20.8387 7.4139 20.8667L7.5609 20.8657H15.5729C17.2149 20.8477 18.5539 19.4907 18.5519 17.8407V8.8417L13.9179 4.0117H7.5849H7.5729ZM7.3999 22.3667C4.9269 22.3237 2.9589 20.2867 3.0009 17.8267V6.9907C3.0579 4.5097 5.1069 2.5117 7.5699 2.5117H7.5879H14.2369C14.4409 2.5117 14.6359 2.5947 14.7779 2.7417L19.8439 8.0207C19.9769 8.1597 20.0519 8.3467 20.0519 8.5397V17.8397C20.0559 20.3087 18.0499 22.3397 15.5809 22.3657L7.3999 22.3667Z" fill="#887549"/>
<path id="Fill 3" fill-rule="evenodd" clip-rule="evenodd" d="M19.2975 9.4844H16.5435C14.7125 9.4794 13.2245 7.9874 13.2245 6.1594V3.2504C13.2245 2.8364 13.5605 2.5004 13.9745 2.5004C14.3885 2.5004 14.7245 2.8364 14.7245 3.2504V6.1594C14.7245 7.1634 15.5415 7.9814 16.5455 7.9844H19.2975C19.7115 7.9844 20.0475 8.3204 20.0475 8.7344C20.0475 9.1484 19.7115 9.4844 19.2975 9.4844" fill="#887549"/>
<path id="Fill 5" fill-rule="evenodd" clip-rule="evenodd" d="M13.7937 14.1641H8.89465C8.48065 14.1641 8.14465 13.8281 8.14465 13.4141C8.14465 13.0001 8.48065 12.6641 8.89465 12.6641H13.7937C14.2077 12.6641 14.5437 13.0001 14.5437 13.4141C14.5437 13.8281 14.2077 14.1641 13.7937 14.1641" fill="#887549"/>
<path id="Fill 7" fill-rule="evenodd" clip-rule="evenodd" d="M11.3444 16.6143C10.9304 16.6143 10.5944 16.2783 10.5944 15.8643V10.9643C10.5944 10.5503 10.9304 10.2143 11.3444 10.2143C11.7584 10.2143 12.0944 10.5503 12.0944 10.9643V15.8643C12.0944 16.2783 11.7584 16.6143 11.3444 16.6143" fill="#887549"/>
</g>
</svg>
