<svg width="12" height="13" viewBox="0 0 12 13" fill="none" xmlns="http://www.w3.org/2000/svg">
<path fill-rule="evenodd" clip-rule="evenodd" d="M5.28438 11.7373C5.10143 11.5543 4.98804 11.3018 4.98899 11.0226L4.98994 1.88158C4.98994 1.32319 5.44161 0.871521 6 0.871521C6.55934 0.872474 7.01101 1.32414 7.01006 1.88158L7.00911 11.0226C7.00911 11.581 6.55744 12.0327 5.99905 12.0327C5.71985 12.0336 5.46638 11.9193 5.28438 11.7373" fill="white"/>
<path fill-rule="evenodd" clip-rule="evenodd" d="M0.714599 5.73711C0.897553 5.55416 1.15007 5.44076 1.42926 5.44172L10.5703 5.44267C11.1287 5.44267 11.5804 5.89434 11.5804 6.45273C11.5794 7.01207 11.1277 7.46374 10.5703 7.46279L1.42926 7.46183C0.870873 7.46183 0.419205 7.01017 0.419205 6.45177C0.418252 6.17258 0.532598 5.91911 0.714599 5.73711" fill="white"/>
</svg>
