<svg width="22" height="12" viewBox="0 0 22 12" fill="none" xmlns="http://www.w3.org/2000/svg">
<path d="M3.98057 9.76517C3.84817 9.63203 3.83613 9.4237 3.94446 9.27689L3.98057 9.23483L7.19748 6L3.98057 2.76516C3.84817 2.63203 3.83613 2.4237 3.94446 2.27689L3.98057 2.23484C4.11297 2.1017 4.32016 2.0896 4.46616 2.19853L4.50799 2.23484L7.98878 5.73484C8.12118 5.86797 8.13322 6.0763 8.02489 6.22311L7.98878 6.26517L4.50799 9.76517C4.36235 9.91161 4.12621 9.91161 3.98057 9.76517Z" fill="#212121"/>
<g opacity="0.6">
<path d="M8.95298 9.76517C8.82058 9.63203 8.80854 9.4237 8.91687 9.27689L8.95298 9.23483L12.1699 6L8.95298 2.76516C8.82058 2.63203 8.80854 2.4237 8.91687 2.27689L8.95298 2.23484C9.08538 2.1017 9.29257 2.0896 9.43857 2.19853L9.4804 2.23484L12.9612 5.73484C13.0936 5.86797 13.1056 6.0763 12.9973 6.22311L12.9612 6.26517L9.4804 9.76517C9.33476 9.91161 9.09862 9.91161 8.95298 9.76517Z" fill="#212121"/>
</g>
<g opacity="0.3">
<path d="M13.9256 9.76517C13.7932 9.63203 13.7812 9.4237 13.8895 9.27689L13.9256 9.23483L17.1425 6L13.9256 2.76516C13.7932 2.63203 13.7812 2.4237 13.8895 2.27689L13.9256 2.23484C14.058 2.1017 14.2652 2.0896 14.4112 2.19853L14.4531 2.23484L17.9338 5.73484C18.0662 5.86797 18.0783 6.0763 17.97 6.22311L17.9338 6.26517L14.4531 9.76517C14.3074 9.91161 14.0713 9.91161 13.9256 9.76517Z" fill="#212121"/>
</g>
</svg>
