<svg width="94" height="94" viewBox="0 0 94 94" fill="none" xmlns="http://www.w3.org/2000/svg">
<circle cx="47" cy="47" r="47" fill="#887549"/>
<path d="M37.1735 44.9634C35.4115 43.2107 32.5622 43.2183 30.8096 44.9803C29.0569 46.7424 29.0645 49.5916 30.8265 51.3443L37.1735 44.9634ZM42.8933 57L39.7198 60.1904C41.4752 61.9365 44.3114 61.9365 46.0668 60.1904L42.8933 57ZM66.1735 40.1904C67.9355 38.4378 67.9431 35.5885 66.1904 33.8265C64.4378 32.0645 61.5885 32.0569 59.8265 33.8096L66.1735 40.1904ZM30.8265 51.3443L39.7198 60.1904L46.0668 53.8096L37.1735 44.9634L30.8265 51.3443ZM46.0668 60.1904L66.1735 40.1904L59.8265 33.8096L39.7198 53.8096L46.0668 60.1904Z" fill="#FAFAFA"/>
</svg>
