<svg width="24" height="25" viewBox="0 0 24 25" fill="none" xmlns="http://www.w3.org/2000/svg">
<g id="Iconly/Light-Outline/3 User">
<g id="3 User">
<path id="Fill 1" fill-rule="evenodd" clip-rule="evenodd" d="M17.8867 12.6465C17.5187 12.6465 17.1977 12.3755 17.1447 12.0005C17.0877 11.5895 17.3727 11.2105 17.7837 11.1535C18.8237 11.0075 19.6087 10.1055 19.6107 9.05351C19.6107 8.01051 18.8627 7.12851 17.8317 6.95951C17.4237 6.89251 17.1467 6.50651 17.2137 6.09751C17.2817 5.68851 17.6647 5.41451 18.0757 5.47951C19.8337 5.76851 21.1107 7.27251 21.1107 9.05551C21.1067 10.8505 19.7657 12.3905 17.9907 12.6395C17.9557 12.6445 17.9207 12.6465 17.8867 12.6465" fill="#887549"/>
<g id="Group 5">
<mask id="mask0_1_496" style="mask-type:alpha" maskUnits="userSpaceOnUse" x="18" y="14" width="5" height="6">
<path id="Clip 4" fill-rule="evenodd" clip-rule="evenodd" d="M18.978 14.5016H22.772V19.0312H18.978V14.5016Z" fill="white"/>
</mask>
<g mask="url(#mask0_1_496)">
<path id="Fill 3" fill-rule="evenodd" clip-rule="evenodd" d="M20.8613 19.0312C20.5593 19.0312 20.2743 18.8472 20.1603 18.5482C20.0123 18.1612 20.2073 17.7272 20.5943 17.5802C21.2723 17.3222 21.2723 17.0372 21.2723 16.9002C21.2723 16.4622 20.7153 16.1562 19.6173 15.9922C19.2083 15.9302 18.9253 15.5492 18.9863 15.1382C19.0473 14.7282 19.4273 14.4552 19.8403 14.5082C22.2633 14.8712 22.7723 16.0092 22.7723 16.9002C22.7723 17.4442 22.5583 18.4372 21.1283 18.9822C21.0403 19.0152 20.9503 19.0312 20.8613 19.0312" fill="#887549"/>
</g>
</g>
<path id="Fill 6" fill-rule="evenodd" clip-rule="evenodd" d="M11.8866 16.414C9.51061 16.414 6.67761 16.706 6.67761 18.096C6.67761 19.497 9.51061 19.791 11.8866 19.791C14.2626 19.791 17.0946 19.5 17.0946 18.113C17.0946 16.709 14.2626 16.414 11.8866 16.414M11.8866 21.291C10.2276 21.291 5.17761 21.291 5.17761 18.096C5.17761 14.914 10.2276 14.914 11.8866 14.914C13.5456 14.914 18.5946 14.914 18.5946 18.113C18.5946 21.291 13.7216 21.291 11.8866 21.291" fill="#887549"/>
<path id="Fill 8" fill-rule="evenodd" clip-rule="evenodd" d="M11.8866 6C10.1946 6 8.81864 7.377 8.81864 9.069C8.81564 9.889 9.12964 10.656 9.70464 11.235C10.2796 11.814 11.0456 12.135 11.8616 12.138L11.8866 12.888V12.138C13.5786 12.138 14.9556 10.762 14.9556 9.069C14.9556 7.377 13.5786 6 11.8866 6M11.8866 13.638H11.8596C10.6396 13.634 9.49664 13.156 8.64064 12.292C7.78264 11.429 7.31364 10.283 7.31864 9.066C7.31864 6.55 9.36764 4.5 11.8866 4.5C14.4066 4.5 16.4556 6.55 16.4556 9.069C16.4556 11.588 14.4066 13.638 11.8866 13.638" fill="#887549"/>
<path id="Fill 10" fill-rule="evenodd" clip-rule="evenodd" d="M5.8856 12.6465C5.8516 12.6465 5.8166 12.6445 5.7816 12.6395C4.0066 12.3905 2.6666 10.8505 2.6626 9.05751C2.6626 7.27251 3.9396 5.76851 5.6976 5.47951C6.1186 5.41351 6.4916 5.69051 6.5596 6.09751C6.6266 6.50651 6.3496 6.89251 5.9416 6.95951C4.9106 7.12851 4.1626 8.01051 4.1626 9.05551C4.1646 10.1055 4.9496 11.0085 5.9886 11.1535C6.3996 11.2105 6.6846 11.5895 6.6276 12.0005C6.5746 12.3755 6.2536 12.6465 5.8856 12.6465" fill="#887549"/>
<path id="Fill 12" fill-rule="evenodd" clip-rule="evenodd" d="M2.912 19.0312C2.823 19.0312 2.733 19.0152 2.645 18.9822C1.214 18.4362 1 17.4432 1 16.9002C1 16.0102 1.509 14.8712 3.933 14.5082C4.346 14.4562 4.724 14.7282 4.786 15.1382C4.847 15.5492 4.564 15.9302 4.155 15.9922C3.057 16.1562 2.5 16.4622 2.5 16.9002C2.5 17.0372 2.5 17.3212 3.179 17.5802C3.566 17.7272 3.761 18.1612 3.613 18.5482C3.499 18.8472 3.214 19.0312 2.912 19.0312" fill="#887549"/>
</g>
</g>
</svg>
