<svg width="32" height="32" viewBox="0 0 32 32" fill="none" xmlns="http://www.w3.org/2000/svg">
<g>
<path d="M16.0064 22.2358V18.8531" stroke="white" stroke-width="2.66667" stroke-linecap="round" stroke-linejoin="round"/>
<path fill-rule="evenodd" clip-rule="evenodd" d="M7.74683 7.10693C5.49349 7.10693 3.68016 8.9336 3.68016 11.1869V15.7736C6.96016 17.6936 11.2935 18.8536 16.0135 18.8536C20.7335 18.8536 25.0535 17.6936 28.3335 15.7736V11.1736C28.3335 8.92027 26.5068 7.10693 24.2535 7.10693H7.74683Z" stroke="white" stroke-width="2.66667" stroke-linecap="round" stroke-linejoin="round"/>
<path d="M11.3398 7.10106V6.61306C11.3398 4.9864 12.6598 3.6664 14.2864 3.6664H17.7264C19.3531 3.6664 20.6731 4.9864 20.6731 6.61306V7.10106" stroke="white" stroke-width="2.66667" stroke-linecap="round" stroke-linejoin="round"/>
<path d="M28.3008 20.644L28.0488 23.9893C27.8781 26.244 25.9994 27.9867 23.7394 27.9867H8.27411C6.01411 27.9867 4.13545 26.244 3.96478 23.9893L3.71278 20.644" stroke="white" stroke-width="2.66667" stroke-linecap="round" stroke-linejoin="round"/>
</g>
</svg>
